<!-- icon666.com - MILLIONS vector ICONS FREE --><svg id="Layer_1" enable-background="new 0 0 29 29" viewBox="0 0 29 29" xmlns="http://www.w3.org/2000/svg"><g><path d="m22 22.9c-.3 0-.5-.1-.7-.3l-18-18c-.4-.4-.4-1 0-1.4s1-.4 1.4 0l18 18c.4.4.4 1 0 1.4-.2.2-.4.3-.7.3z" fill="#000000" style="fill: rgb(255, 255, 255);"></path><path d="m3.3 4.6 1.4-1.4 18 18-1.4 1.4z" fill="#000000" style="fill: rgb(255, 255, 255);"></path><path d="m19.7 20.5c-.6 0-1-.4-1-1 0-.3.1-.5.3-.7l4.4-4.4c2.1-2.1 2.1-5.6 0-7.8-2.1-2.1-5.6-2.1-7.8 0l-.4.4c-.4.4-1 .4-1.4 0l-.4-.4c-2-2-5.1-2.2-7.3-.4-.4.4-1 .3-1.3-.2-.4-.4-.3-1 .1-1.4 2.8-2.2 6.9-2.1 9.6.3 2.9-2.6 7.4-2.5 10.3.3 2.9 2.9 2.9 7.7 0 10.6l-4.4 4.4c-.2.2-.5.3-.7.3z" fill="#000000" style="fill: rgb(255, 255, 255);"></path><path d="m14.5 23.3-8.8-8.8c-1-1-1.6-2.4-1.6-3.9 0-.2 0-.4 0-.7v-.1-.1c.1-.4.2-.7.4-1.1l-1.6-1.6-.1.4c-1.3 2.9-.7 6.2 1.5 8.5l10.3 10.3 3.7-3.7-1.5-1.5z" fill="#000000" style="fill: rgb(255, 255, 255);"></path></g></svg>