<!-- icon666.com - MILLIONS vector ICONS FREE --><svg fill="none" viewBox="0 0 24 24" xmlns="http://www.w3.org/2000/svg"><path clip-rule="evenodd" d="m20 9.02576c0 .5511-.4477.99784-1 .99784h-4c-.2653 0-.5197-.10516-.7072-.29236-.1876-.1872-.2929-.4411-.2928-.7058l.0013-4.0343c.0002-.55111.448-.99772 1.0003-.99755.5523.00018.9999.44708.9997.99818l-.0005 1.614 4.2912-4.3114c.3894-.39084 1.0225-.39272 1.4142-.00419s.3936 1.02034.0042 1.41118l-4.3063 4.32654h1.5959c.5523 0 1 .44675 1 .99786zm-17.705 12.68404c-.39168-.3885-.39357-1.0203-.00421-1.4111l4.30632-4.3266h-1.59592c-.55228 0-1-.4467-1-.9978s.44772-.9979 1-.9979h4.00002c.26527 0 .51967.1052.70722.2924.18754.1872.29287.4411.29277.7058l-.00127 4.0343c-.00018.5511-.44804.9977-1.00032.9975-.55229-.0002-.99986-.4471-.99968-.9982l.00051-1.614-4.29124 4.3114c-.38936.3909-1.02252.3928-1.4142.0042z" fill="rgb(0,0,0)" fill-rule="evenodd" style="fill: rgb(255, 255, 255);"></path></svg>