<!-- icon666.com - MILLIONS vector ICONS FREE --><svg fill="none" viewBox="0 0 24 24" xmlns="http://www.w3.org/2000/svg"><path d="m15 12.75h-6c-.41 0-.75-.34-.75-.75s.34-.75.75-.75h6c.41 0 .75.34.75.75s-.34.75-.75.75z" fill="#aaa" style="fill: rgb(255, 255, 255);"></path><g fill="#000"><path d="m3.91 17.1799c-.19 0-.38-.07-.53-.22-1.37-1.38-2.13-3.2-2.13-5.13 0-4.00996 3.25-7.26998 7.25-7.26998l6.07.02002-1.09-1.04004c-.3-.29-.31-.75999-.02-1.05999s.76-.30996 1.06-.01996l2.44 2.33996c.22.21.29.54001.18.82001s-.39.47003-.7.47003l-7.94999-.02002c-3.17 0-5.75 2.59002-5.75 5.77007 0 1.53.59998 2.9799 1.68998 4.0699.29.29.29.77 0 1.06-.14.14-.32999.21-.51999.21z" fill="#000" style="fill: rgb(255, 255, 255);"></path><path d="m9.9999 21.75c-.19 0-.37-.0701-.52-.2101l-2.44-2.3399c-.22-.21-.29-.54-.18-.82s.39-.4701.7-.4701l7.95.0201c3.17 0 5.75-2.5901 5.75-5.7701 0-1.53-.6-2.9799-1.69-4.0699-.29-.29-.29-.77 0-1.06s.77-.29 1.06 0c1.37 1.38 2.13 3.1999 2.13 5.1299 0 4.01-3.25 7.2701-7.25 7.2701l-6.07-.0201 1.09 1.0401c.3.29.31.76.02 1.06-.16.16-.35.24-.55.24z" fill="#000" style="fill: rgb(255, 255, 255);"></path></g></svg>