<!-- icon666.com - MILLIONS vector ICONS FREE --><svg fill="none" viewBox="0 0 24 24" xmlns="http://www.w3.org/2000/svg"><g fill="rgb(0,0,0)"><path d="m3.91 17.1814c-.19 0-.38-.07-.53-.22-1.37-1.38-2.13-3.2-2.13-5.13 0-4.01001 3.25-7.27001 7.25-7.27001l6.07.02-1.09-1.04c-.3-.29-.31-.76-.02-1.06s.76-.31 1.06-.02l2.44 2.34c.22.21.29.54.18.82s-.39.47-.7.47l-7.94-.02c-3.17 0-5.75 2.59-5.75 5.77001 0 1.53.6 2.98 1.69 4.07.29.29.29.77 0 1.06-.15.14-.34.21-.53.21z" fill="rgb(0,0,0)" style="fill: rgb(255, 255, 255);"></path><path d="m9.9999 21.75c-.19 0-.37-.07-.52-.21l-2.44-2.34c-.22-.21-.29-.54-.18-.82.12-.28.4-.43.7-.47l7.95.02c3.17 0 5.75-2.59 5.75-5.77 0-1.53-.6-2.98-1.69-4.07-.29-.29-.29-.77 0-1.06s.77-.29 1.06 0c1.37 1.38 2.13 3.2 2.13 5.13 0 4.01-3.25 7.27-7.25 7.27l-6.07-.02 1.09 1.04c.3.29.31.76.02 1.06-.16.16-.35.24-.55.24z" fill="rgb(0,0,0)" style="fill: rgb(255, 255, 255);"></path><path d="m12.2485 15.4191c-.41 0-.75-.34-.75-.75v-3.39l-.19.21c-.28.31-.75.33-1.06.06-.30997-.27-.32997-.75-.06-1.06l1.5-1.67001c.21-.23.54-.31.83-.2.29.12.48.39.48.71v5.35001c0 .41-.34.74-.75.74z" fill="rgb(0,0,0)" style="fill: rgb(255, 255, 255);"></path></g></svg>