<!--?xml version="1.0" standalone="no"?-->
              <svg id="sw-js-blob-svg" viewBox="0 0 100 100" xmlns="http://www.w3.org/2000/svg" version="1.1">
                    <defs> 
                        <linearGradient id="sw-gradient" x1="0" x2="1" y1="1" y2="0">
                            <stop id="stop1" stop-color="rgba(248, 117, 55, 1)" offset="0%"></stop>
                            <stop id="stop2" stop-color="rgba(233.058, 196.616, 136.466, 1)" offset="100%"></stop>
                        </linearGradient>
                    </defs>
                <path fill="url(#sw-gradient)" d="M20.2,-22C27.6,-17.8,36.1,-12.8,37.8,-6.2C39.5,0.4,34.5,8.7,29.6,17.1C24.8,25.6,20.2,34.1,13.4,36.3C6.7,38.5,-2.2,34.4,-10.5,30.6C-18.9,26.8,-26.7,23.4,-30.2,17.4C-33.7,11.4,-32.9,2.9,-31.9,-6.1C-30.9,-15.2,-29.8,-24.7,-24.5,-29.3C-19.1,-33.8,-9.6,-33.4,-1.6,-31.5C6.4,-29.6,12.7,-26.2,20.2,-22Z" width="100%" height="100%" transform="translate(50 50)" stroke-width="0" style="transition: all 0.3s ease 0s;" stroke="url(#sw-gradient)"></path>
              </svg>