<!-- icon666.com - MILLIONS vector ICONS FREE --><svg version="1.1" id="Capa_1" xmlns="http://www.w3.org/2000/svg" xmlns:xlink="http://www.w3.org/1999/xlink" x="0px" y="0px" viewBox="0 0 495.36 495.36" style="enable-background:new 0 0 495.36 495.36;" xml:space="preserve"><g><g><path d="M247.467,0C110.677,0.118-0.118,111.104,0,247.893c0.118,136.79,111.103,247.584,247.893,247.467 C384.6,495.242,495.36,384.387,495.36,247.68C495.125,110.904,384.242,0.117,247.467,0z M247.467,474.027v0.213 C122.459,474.122,21.216,372.688,21.334,247.68c0.118-125.008,101.552-226.251,226.56-226.133 c124.841,0.118,226.015,101.292,226.133,226.133C473.792,372.674,372.46,473.909,247.467,474.027z" fill="#000000" style="fill: rgb(255, 255, 255);"></path></g></g><g><g><path d="M170.881,230.188c-0.072-0.001-0.143-0.001-0.215-0.001c-9.661,0.001-17.493,7.833-17.492,17.495 c0.001,9.661,7.833,17.493,17.495,17.492c9.578-0.001,17.374-7.703,17.491-17.28C188.278,238.233,180.542,230.306,170.881,230.188 z" fill="#000000" style="fill: rgb(255, 255, 255);"></path></g></g><g><g><path d="M248.113,230.183c-0.216-0.003-0.431-0.001-0.647,0.004c-9.658,0.236-17.296,8.258-17.06,17.916 c0.236,9.658,8.258,17.296,17.916,17.06c9.407-0.23,16.946-7.861,17.064-17.27C265.507,238.233,257.774,230.304,248.113,230.183z" fill="#000000" style="fill: rgb(255, 255, 255);"></path></g></g><g><g><path d="M324.48,230.187c-9.778-0.118-17.801,7.714-17.919,17.492c-0.001,0.072-0.001,0.143-0.001,0.215 c0.001,9.779,7.929,17.706,17.708,17.705c9.779-0.001,17.706-7.929,17.705-17.708C341.973,238.195,334.175,230.304,324.48,230.187 z" fill="#000000" style="fill: rgb(255, 255, 255);"></path></g></g></svg>